<?xml version="1.0" encoding="UTF-8"?>
<svg id="uuid-529ac19d-4a62-4be2-92e5-2592ff61097b" data-name="uuid-45bd0d86-4a8c-48ed-9a42-6fce2023fca1" xmlns="http://www.w3.org/2000/svg" xmlns:xlink="http://www.w3.org/1999/xlink" viewBox="0 0 668.19 284.5">
  <defs>
    <style>
      .uuid-8bca00aa-2dad-4532-a35f-5c0afad22669 {
        fill: #171e46;
      }

      .uuid-8bca00aa-2dad-4532-a35f-5c0afad22669, .uuid-cbe92602-bc5b-4d28-bdbd-aeb1930174f6, .uuid-aa858a58-2540-4faf-b61d-bc66dd3e63bf, .uuid-5c948bf9-bb08-479a-9e16-892b9e2f782d, .uuid-fb29917d-420d-40fb-a06e-27ca95845de1, .uuid-4a450d2e-6f29-4fbc-9262-b6f52f4930d3, .uuid-74c8350b-c77b-4181-aa52-2a4d418d4b60, .uuid-5de24cc1-f0a0-420b-a456-4c6358968b88, .uuid-334a921b-3e22-4d3a-a595-a3dc213f7853, .uuid-42273783-33e7-41a1-8a0b-3e7878fa591e, .uuid-09f1b383-7fe5-4e67-9fc9-9ba4dea9b7c3, .uuid-d1fa38cc-bbd3-4ac6-915a-3b04584590e6, .uuid-320a6ab4-fbb0-4d9f-9a16-8608e5594876, .uuid-8c8e19ba-3f3d-490a-8a8d-5334100ffe8b {
        stroke-width: 0px;
      }

      .uuid-8bca00aa-2dad-4532-a35f-5c0afad22669, .uuid-334a921b-3e22-4d3a-a595-a3dc213f7853, .uuid-42273783-33e7-41a1-8a0b-3e7878fa591e, .uuid-8c8e19ba-3f3d-490a-8a8d-5334100ffe8b {
        fill-rule: evenodd;
      }

      .uuid-cbe92602-bc5b-4d28-bdbd-aeb1930174f6, .uuid-334a921b-3e22-4d3a-a595-a3dc213f7853 {
        fill: #727270;
      }

      .uuid-aa858a58-2540-4faf-b61d-bc66dd3e63bf {
        fill: none;
      }

      .uuid-5c948bf9-bb08-479a-9e16-892b9e2f782d {
        fill: #fdcf00;
      }

      .uuid-8686284a-c372-4048-b165-3a566e294943 {
        clip-path: url(#uuid-fed28c94-ade2-4915-a2b7-810652a7c1f7);
      }

      .uuid-fb29917d-420d-40fb-a06e-27ca95845de1 {
        fill: #013780;
      }

      .uuid-4a450d2e-6f29-4fbc-9262-b6f52f4930d3 {
        fill: #c9eeff;
      }

      .uuid-74c8350b-c77b-4181-aa52-2a4d418d4b60 {
        fill: #239eed;
      }

      .uuid-5de24cc1-f0a0-420b-a456-4c6358968b88 {
        fill: #f2bca9;
      }

      .uuid-42273783-33e7-41a1-8a0b-3e7878fa591e, .uuid-09f1b383-7fe5-4e67-9fc9-9ba4dea9b7c3 {
        fill: #fff;
      }

      .uuid-d1fa38cc-bbd3-4ac6-915a-3b04584590e6, .uuid-8c8e19ba-3f3d-490a-8a8d-5334100ffe8b {
        fill: #01aced;
      }

      .uuid-320a6ab4-fbb0-4d9f-9a16-8608e5594876 {
        fill: #5b2410;
      }
    </style>
    <clipPath id="uuid-fed28c94-ade2-4915-a2b7-810652a7c1f7">
      <circle class="uuid-aa858a58-2540-4faf-b61d-bc66dd3e63bf" cx="110.19" cy="203.7" r="15.14"/>
    </clipPath>
  </defs>
  <g>
    <g>
      <rect class="uuid-4a450d2e-6f29-4fbc-9262-b6f52f4930d3" x="0" y="230.5" width="124.65" height="54" rx="8.9" ry="8.9"/>
      <polygon class="uuid-4a450d2e-6f29-4fbc-9262-b6f52f4930d3" points="120.58 242.8 111.03 230.5 132.88 230.5 120.58 242.8"/>
      <g>
        <circle class="uuid-5c948bf9-bb08-479a-9e16-892b9e2f782d" cx="28.99" cy="258.73" r="7.95"/>
        <g>
          <path class="uuid-320a6ab4-fbb0-4d9f-9a16-8608e5594876" d="M32.69,255.41c.82,0,1.48.66,1.48,1.48s-.66-.5-1.48-.5-1.48,1.32-1.48.5.66-1.48,1.48-1.48Z"/>
          <path class="uuid-320a6ab4-fbb0-4d9f-9a16-8608e5594876" d="M25.26,255.41c.82,0,1.48.66,1.48,1.48s-.66-.5-1.48-.5-1.48,1.32-1.48.5.66-1.48,1.48-1.48Z"/>
        </g>
        <path class="uuid-320a6ab4-fbb0-4d9f-9a16-8608e5594876" d="M28.97,261.96c-1.71,0-3.43-.66-4.73-1.96-.08-.09-.09-.23,0-.31s.23-.08.31,0c2.44,2.44,6.41,2.44,8.85,0,.09-.08.23-.08.31,0,.08.09.08.23,0,.31-1.3,1.31-3.02,1.96-4.73,1.96h0Z"/>
      </g>
    </g>
    <path class="uuid-d1fa38cc-bbd3-4ac6-915a-3b04584590e6" d="M120.95,185.64l8.26,8.26c-.01.21-.03.42-.03.64v20.85c0,4.89,4,8.9,8.9,8.9h106.85c4.89,0,8.9-4,8.9-8.9v-20.85c0-4.89-4-8.9-8.9-8.9h-123.99s0,0,0,0Z"/>
    <circle class="uuid-4a450d2e-6f29-4fbc-9262-b6f52f4930d3" cx="148.66" cy="250.35" r="16.16"/>
    <g>
      <circle class="uuid-74c8350b-c77b-4181-aa52-2a4d418d4b60" cx="110.19" cy="203.7" r="15.14"/>
      <g class="uuid-8686284a-c372-4048-b165-3a566e294943">
        <g>
          <path class="uuid-fb29917d-420d-40fb-a06e-27ca95845de1" d="M110.2,193.94c4.14,0,7.5,3.37,7.5,7.51s-3.35,7.5-7.5,7.5-7.51-3.36-7.51-7.5,3.37-7.51,7.51-7.51Z"/>
          <path class="uuid-5c948bf9-bb08-479a-9e16-892b9e2f782d" d="M101.17,218.93v5.49s18.04,0,18.04,0v-5.49c0-4.34-3.51-7.85-7.85-7.85h-2.34c-4.34,0-7.85,3.51-7.85,7.85Z"/>
          <path class="uuid-5de24cc1-f0a0-420b-a456-4c6358968b88" d="M105.85,197.31c.55,1.51.69,4.03-1.69,7.5-.06.01-.12.02-.18.02.01,3.43,2.78,6.2,6.21,6.2h0c3.42,0,6.2-2.78,6.21-6.2-.06-.01-.12-.02-.18-.02-2.38-3.47-2.23-5.99-1.69-7.5,0,0-3.58,2.24-8.68,0h0Z"/>
          <path class="uuid-5de24cc1-f0a0-420b-a456-4c6358968b88" d="M107.77,207.71v5.31c0,1.34,1.08,2.42,2.42,2.42s2.42-1.08,2.42-2.42v-5.31s-4.84,0-4.84,0Z"/>
          <path class="uuid-09f1b383-7fe5-4e67-9fc9-9ba4dea9b7c3" d="M112.24,206.8h-4.09c.09,1.05.97,1.88,2.04,1.88s1.95-.83,2.04-1.88h.01Z"/>
          <g>
            <path class="uuid-5de24cc1-f0a0-420b-a456-4c6358968b88" d="M116.47,202.59c1.01,0,1.82.81,1.82,1.82s-.81,1.82-1.82,1.82-1.82-.82-1.82-1.82.81-1.82,1.82-1.82Z"/>
            <path class="uuid-5de24cc1-f0a0-420b-a456-4c6358968b88" d="M103.92,202.59c1.01,0,1.82.81,1.82,1.82s-.81,1.82-1.82,1.82-1.82-.82-1.82-1.82.81-1.82,1.82-1.82Z"/>
          </g>
        </g>
      </g>
    </g>
    <g>
      <path class="uuid-42273783-33e7-41a1-8a0b-3e7878fa591e" d="M203.98,202.25c1.18,0,2.13.35,2.84,1.06h0c.71.71,1.06,1.66,1.06,2.72s-.35,2.01-1.06,2.72h0c-.71.71-1.66,1.18-2.84,1.18-.95,0-1.9-.47-2.61-1.18h0c-.71-.71-1.18-1.66-1.18-2.72s.47-2.01,1.18-2.72h0c.71-.71,1.66-1.06,2.61-1.06h0Z"/>
      <path class="uuid-42273783-33e7-41a1-8a0b-3e7878fa591e" d="M182.56,202.25c1.07,0,2.02.35,2.73,1.06h0c.71.71,1.18,1.66,1.18,2.72s-.47,2.01-1.18,2.72h0c-.71.71-1.67,1.18-2.73,1.18s-2.01-.47-2.72-1.18h0c-.71-.71-1.06-1.66-1.06-2.72s.35-2.01,1.06-2.72h0c.71-.71,1.66-1.06,2.72-1.06h0Z"/>
      <path class="uuid-42273783-33e7-41a1-8a0b-3e7878fa591e" d="M193.33,202.25c1.06,0,2.01.35,2.72,1.06h0c.7.71,1.06,1.66,1.06,2.72s-.35,2.01-1.06,2.72c-.71.71-1.66,1.18-2.72,1.18s-2.01-.47-2.72-1.18h0c-.71-.71-1.18-1.66-1.18-2.72s.47-2.01,1.18-2.72h0c.71-.71,1.66-1.06,2.72-1.06h0Z"/>
    </g>
    <g>
      <path class="uuid-8bca00aa-2dad-4532-a35f-5c0afad22669" d="M66.22,255.79c.95,0,1.9.35,2.61,1.06h0c.71.71,1.18,1.66,1.18,2.72s-.47,2.01-1.18,2.72h0c-.71.71-1.66,1.18-2.61,1.18-1.18,0-2.13-.47-2.84-1.18h0c-.71-.71-1.06-1.66-1.06-2.72s.35-2.01,1.06-2.72h0c.71-.71,1.66-1.06,2.84-1.06h0Z"/>
      <path class="uuid-8bca00aa-2dad-4532-a35f-5c0afad22669" d="M87.64,255.79c1.06,0,2.01.35,2.72,1.06h0c.71.71,1.06,1.66,1.06,2.72s-.35,2.01-1.06,2.72h0c-.71.71-1.66,1.18-2.72,1.18s-2.02-.47-2.73-1.18h0c-.71-.71-1.18-1.66-1.18-2.72s.47-2.01,1.18-2.72h0c.71-.71,1.66-1.06,2.73-1.06h0Z"/>
      <path class="uuid-8bca00aa-2dad-4532-a35f-5c0afad22669" d="M76.87,255.79c1.06,0,2.01.35,2.72,1.06h0c.71.71,1.18,1.66,1.18,2.72s-.47,2.01-1.18,2.72h0c-.71.71-1.66,1.18-2.72,1.18s-2.01-.47-2.72-1.18-1.06-1.66-1.06-2.72.36-2.01,1.06-2.72h0c.71-.71,1.66-1.06,2.72-1.06h0Z"/>
    </g>
  </g>
  <g>
    <g>
      <g>
        <path class="uuid-8c8e19ba-3f3d-490a-8a8d-5334100ffe8b" d="M638.99,102.29c.76,0,1.53.29,2.1.86h0c.57.57.95,1.34.95,2.2s-.38,1.62-.95,2.2h0c-.57.57-1.34.96-2.1.96-.96,0-1.72-.38-2.3-.96h0c-.57-.57-.86-1.34-.86-2.2s.29-1.63.86-2.2h0c.58-.57,1.34-.86,2.3-.86h0Z"/>
        <path class="uuid-8c8e19ba-3f3d-490a-8a8d-5334100ffe8b" d="M656.29,102.29c.86,0,1.62.29,2.2.86h0c.57.57.86,1.34.86,2.2s-.29,1.62-.86,2.2h0c-.58.57-1.34.96-2.2.96s-1.63-.38-2.2-.96h0c-.57-.57-.95-1.34-.95-2.2s.38-1.63.95-2.2h0c.57-.57,1.34-.86,2.2-.86h0Z"/>
        <path class="uuid-8c8e19ba-3f3d-490a-8a8d-5334100ffe8b" d="M647.6,102.29c.86,0,1.62.29,2.2.86h0c.57.57.96,1.34.96,2.2s-.38,1.62-.96,2.2h0c-.57.57-1.34.96-2.2.96s-1.63-.38-2.2-.96c-.57-.57-.86-1.34-.86-2.2s.29-1.63.86-2.2h0c.57-.57,1.34-.86,2.2-.86h0Z"/>
      </g>
      <path class="uuid-334a921b-3e22-4d3a-a595-a3dc213f7853" d="M661.78,127.76v-9.08c4.21-3.63,6.41-8.6,6.41-14.43,0-10.13-9.37-18.45-20.93-18.45-9.65,0-19.31,8.32-19.31,18.45s7.74,18.73,19.31,18.73c1.34,0,4.21-.29,5.45-.48l9.08,5.26h0ZM665.03,104.44c0,5.35-2.58,9.56-6.5,12.81v5.73l-5.55-3.73c-1.34.29-4.3.48-5.74.48-9.84,0-16.15-6.88-16.15-15.29s8.12-15.39,16.15-15.39c10.04,0,17.78,6.88,17.78,15.39h.01Z"/>
    </g>
    <g>
      <path class="uuid-cbe92602-bc5b-4d28-bdbd-aeb1930174f6" d="M588.76,60.11l-1.53-.19c-5.45,3.06-11.09,5.83-15.87,9.65v-16.63c-1.53-1.24-2.87-2.77-4.01-4.3-1.34-1.72-2.49-3.54-3.35-5.54h0c-.86-2.01-1.53-4.11-2.01-6.4h0c-.48-2.2-.67-4.4-.67-6.79,0-4.01.96-7.93,2.58-11.47,1.72-3.73,4.3-6.98,7.46-9.75h0c3.15-2.68,6.88-4.87,10.99-6.4,4.02-1.43,8.41-2.29,13-2.29,3.92,0,7.93.86,11.66,2.48,3.82,1.53,7.36,3.82,10.32,6.69,2.96,2.77,5.36,6.02,6.98,9.65,1.63,3.44,2.49,7.26,2.49,11.09,0,4.2-.76,8.31-2.39,11.95-1.53,3.73-3.82,7.17-6.79,9.94-2.77,2.77-6.21,4.97-10.04,6.5-3.73,1.43-7.84,2.2-12.23,2.2-.57,0-1.24,0-2.01-.1-.86,0-1.62-.1-2.39-.1-.67-.09-1.44-.19-2.2-.19h.01ZM588.96,57.05c.67.1,1.44.1,2.2.19h0c.86.09,1.72.09,2.39.09.67.1,1.24.1,1.81.1,4.01,0,7.74-.67,11.09-2.01,3.54-1.34,6.6-3.35,9.08-5.83,2.67-2.48,4.68-5.54,6.12-8.89,1.34-3.35,2.1-6.98,2.1-10.8,0-3.44-.76-6.79-2.2-9.85-1.43-3.25-3.63-6.21-6.31-8.7h0c-2.68-2.58-5.93-4.68-9.37-6.12h0c-3.35-1.43-6.98-2.2-10.51-2.2-4.3,0-8.31.77-11.95,2.1-3.82,1.34-7.17,3.35-10.04,5.83s-5.16,5.45-6.69,8.79c-1.43,3.06-2.3,6.5-2.3,10.13,0,2.2.19,4.3.58,6.31.38,1.91,1.05,3.82,1.81,5.64h0c.76,1.72,1.82,3.44,2.96,4.97,1.15,1.53,2.58,3.06,4.11,4.3l.1.1v.1l.38.96h0v11.57l11.85-6.79.1-.1h0l.86-.1c.48,0,1.15.1,1.81.19h0l.02.02Z"/>
      <path class="uuid-d1fa38cc-bbd3-4ac6-915a-3b04584590e6" d="M595.18,27.02l-1.03,2.51h-7.38c-.04.44-.05.86-.05,1.27,0,.33.01.69.04,1.07h6.18l-.87,2.51h-5.04c.17,1.58.81,3.02,1.94,4.31,1.22,1.4,2.6,2.1,4.12,2.1,1.06,0,2.17-.24,3.33-.71,1.16-.47,2.1-1.09,2.8-1.84v3.87c-1.66,1.26-3.83,1.89-6.5,1.89s-4.7-.99-6.4-2.98c-1.47-1.72-2.42-3.94-2.85-6.65h-2.07v-2.51h1.75c-.06-.81-.07-1.59-.02-2.33h-1.73v-2.51h2.05c.44-2.77,1.48-5.08,3.12-6.93,1.83-2.06,4.08-3.08,6.74-3.08,2.97,0,5.07.55,6.29,1.66l-1.59,2.92c-1.2-.91-2.74-1.37-4.62-1.37s-3.29.7-4.46,2.1c-1,1.22-1.64,2.79-1.92,4.7h8.18-.01Z"/>
    </g>
  </g>
</svg>