<?xml version="1.0" encoding="utf-8"?>
<!-- Generator: Adobe Illustrator 28.3.0, SVG Export Plug-In . SVG Version: 6.00 Build 0)  -->
<svg version="1.1" id="uuid-45bd0d86-4a8c-48ed-9a42-6fce2023fca1"
	 xmlns="http://www.w3.org/2000/svg" xmlns:xlink="http://www.w3.org/1999/xlink" x="0px" y="0px" viewBox="0 0 1302.3 306.6"
	 style="enable-background:new 0 0 1302.3 306.6;" xml:space="preserve">
<style type="text/css">
	.st0{fill:#C9EEFF;}
	.st1{fill:#FDCF00;}
	.st2{fill:#5B2410;}
	.st3{fill:#01ACED;}
	.st4{fill:#239EED;}
	.st5{clip-path:url(#SVGID_00000080898507931109499240000015679737374146050458_);}
	.st6{fill:#013780;}
	.st7{fill:#F2BCA9;}
	.st8{fill:#FFFFFF;}
	.st9{fill-rule:evenodd;clip-rule:evenodd;fill:#FFFFFF;}
	.st10{fill-rule:evenodd;clip-rule:evenodd;fill:#171E46;}
	.st11{fill-rule:evenodd;clip-rule:evenodd;fill:#01ACED;}
	.st12{fill-rule:evenodd;clip-rule:evenodd;fill:#727270;}
	.st13{fill:#727270;}
</style>
<g>
	<g>
		<path class="st0" d="M192.8,252.6h106.9c4.9,0,8.9,4,8.9,8.9v36.2c0,4.9-4,8.9-8.9,8.9H192.8c-4.9,0-8.9-4-8.9-8.9v-36.2
			C183.9,256.6,187.9,252.6,192.8,252.6z"/>
		<polygon class="st0" points="175.7,252.6 197.5,252.6 188,264.9 		"/>
		<g>
			<circle class="st1" cx="279.6" cy="280.8" r="8"/>
			<g>
				<path class="st2" d="M277.4,279c0,0.8-0.7-0.5-1.5-0.5s-1.5,1.3-1.5,0.5s0.7-1.5,1.5-1.5S277.4,278.1,277.4,279z"/>
				<path class="st2" d="M284.8,279c0,0.8-0.7-0.5-1.5-0.5s-1.5,1.3-1.5,0.5s0.7-1.5,1.5-1.5S284.8,278.1,284.8,279z"/>
			</g>
			<path class="st2" d="M279.6,284c-1.7,0-3.4-0.6-4.7-2c-0.1-0.1-0.1-0.2,0-0.3c0.1-0.1,0.2-0.1,0.3,0c2.4,2.4,6.4,2.4,8.9,0
				c0.1-0.1,0.2-0.1,0.3,0s0.1,0.2,0,0.3C283,283.4,281.3,284,279.6,284L279.6,284z"/>
		</g>
	</g>
	<path class="st3" d="M132.9,212.4H8.9c-4.9,0-8.9,4-8.9,8.9v20.9c0,4.9,4,8.9,8.9,8.9h106.8c4.9,0,8.9-4,8.9-8.9v-20.9
		c0-0.2,0-0.4,0-0.6L132.9,212.4L132.9,212.4z"/>
	<circle class="st0" cx="159.9" cy="272.4" r="16.2"/>
	<g>
		<circle class="st4" cx="143.6" cy="230.5" r="15.1"/>
		<g>
			<defs>
				<circle id="SVGID_1_" cx="143.6" cy="230.5" r="15.1"/>
			</defs>
			<clipPath id="SVGID_00000088127489682545642300000007738982092346867642_">
				<use xlink:href="#SVGID_1_"  style="overflow:visible;"/>
			</clipPath>
			<g style="clip-path:url(#SVGID_00000088127489682545642300000007738982092346867642_);">
				<g>
					<path class="st6" d="M151.1,228.2c0,4.1-3.4,7.5-7.5,7.5s-7.5-3.4-7.5-7.5s3.4-7.5,7.5-7.5S151.1,224.1,151.1,228.2z"/>
					<path class="st1" d="M144.8,237.9h-2.3c-4.3,0-7.9,3.5-7.9,7.9v5.5h18v-5.5C152.7,241.4,149.2,237.9,144.8,237.9z"/>
					<path class="st7" d="M148,224.1c-5.1,2.2-8.7,0-8.7,0c0.5,1.5,0.7,4-1.7,7.5c-0.1,0-0.1,0-0.2,0c0,3.4,2.8,6.2,6.2,6.2l0,0
						c3.4,0,6.2-2.8,6.2-6.2c-0.1,0-0.1,0-0.2,0C147.3,228.1,147.4,225.6,148,224.1L148,224.1z"/>
					<path class="st7" d="M141.2,234.5v5.3c0,1.3,1.1,2.4,2.4,2.4s2.4-1.1,2.4-2.4v-5.3H141.2z"/>
					<path class="st8" d="M141.6,233.6c0.1,1.1,1,1.9,2,1.9s1.9-0.8,2-1.9H141.6L141.6,233.6z"/>
					<g>
						<path class="st7" d="M139.2,231.2c0,1-0.8,1.8-1.8,1.8s-1.8-0.8-1.8-1.8s0.8-1.8,1.8-1.8S139.2,230.2,139.2,231.2z"/>
						<path class="st7" d="M151.7,231.2c0,1-0.8,1.8-1.8,1.8s-1.8-0.8-1.8-1.8s0.8-1.8,1.8-1.8S151.7,230.2,151.7,231.2z"/>
					</g>
				</g>
			</g>
		</g>
	</g>
	<g>
		<path class="st9" d="M49.8,229c1,0,1.9,0.4,2.6,1.1l0,0c0.7,0.7,1.2,1.7,1.2,2.7s-0.5,2-1.2,2.7l0,0c-0.7,0.7-1.7,1.2-2.6,1.2
			c-1.2,0-2.1-0.5-2.8-1.2l0,0c-0.7-0.7-1.1-1.7-1.1-2.7s0.3-2,1.1-2.7l0,0C47.7,229.4,48.7,229,49.8,229L49.8,229z"/>
		<path class="st9" d="M71.3,229c1.1,0,2,0.4,2.7,1.1l0,0c0.7,0.7,1.1,1.7,1.1,2.7s-0.3,2-1.1,2.7l0,0c-0.7,0.7-1.7,1.2-2.7,1.2
			s-2-0.5-2.7-1.2l0,0c-0.7-0.7-1.2-1.7-1.2-2.7s0.5-2,1.2-2.7l0,0C69.2,229.4,70.2,229,71.3,229L71.3,229z"/>
		<path class="st9" d="M60.5,229c1.1,0,2,0.4,2.7,1.1l0,0c0.7,0.7,1.2,1.7,1.2,2.7s-0.5,2-1.2,2.7l0,0c-0.7,0.7-1.7,1.2-2.7,1.2
			s-2-0.5-2.7-1.2c-0.7-0.7-1.1-1.7-1.1-2.7s0.4-2,1.1-2.7l0,0C58.5,229.4,59.4,229,60.5,229L60.5,229z"/>
	</g>
	<g>
		<path class="st10" d="M227.8,276.6c0.9,0,1.9,0.4,2.6,1.1l0,0c0.7,0.7,1.2,1.7,1.2,2.7s-0.5,2-1.2,2.7l0,0
			c-0.7,0.7-1.7,1.2-2.6,1.2c-1.2,0-2.1-0.5-2.8-1.2l0,0c-0.7-0.7-1.1-1.7-1.1-2.7s0.4-2,1.1-2.7l0,0
			C225.7,277,226.7,276.6,227.8,276.6L227.8,276.6z"/>
		<path class="st10" d="M249.2,276.6c1.1,0,2,0.4,2.7,1.1l0,0c0.7,0.7,1.1,1.7,1.1,2.7s-0.4,2-1.1,2.7l0,0c-0.7,0.7-1.7,1.2-2.7,1.2
			s-2-0.5-2.7-1.2l0,0c-0.7-0.7-1.2-1.7-1.2-2.7s0.5-2,1.2-2.7l0,0C247.2,277,248.2,276.6,249.2,276.6L249.2,276.6z"/>
		<path class="st10" d="M238.5,276.6c1.1,0,2,0.4,2.7,1.1l0,0c0.7,0.7,1.2,1.7,1.2,2.7s-0.5,2-1.2,2.7l0,0c-0.7,0.7-1.7,1.2-2.7,1.2
			s-2-0.5-2.7-1.2s-1.1-1.7-1.1-2.7s0.4-2,1.1-2.7l0,0C236.5,277,237.4,276.6,238.5,276.6L238.5,276.6z"/>
	</g>
</g>
<g>
	<g>
		<g>
			<path class="st11" d="M1273.1,102.3c0.8,0,1.5,0.3,2.1,0.9l0,0c0.6,0.6,0.9,1.3,0.9,2.2s-0.4,1.6-0.9,2.2l0,0
				c-0.6,0.6-1.3,1-2.1,1c-1,0-1.7-0.4-2.3-1l0,0c-0.6-0.6-0.9-1.3-0.9-2.2s0.3-1.6,0.9-2.2l0,0
				C1271.4,102.6,1272.2,102.3,1273.1,102.3L1273.1,102.3z"/>
			<path class="st11" d="M1290.4,102.3c0.9,0,1.6,0.3,2.2,0.9l0,0c0.6,0.6,0.9,1.3,0.9,2.2s-0.3,1.6-0.9,2.2l0,0
				c-0.6,0.6-1.3,1-2.2,1s-1.6-0.4-2.2-1l0,0c-0.6-0.6-0.9-1.3-0.9-2.2s0.4-1.6,0.9-2.2l0,0C1288.8,102.6,1289.6,102.3,1290.4,102.3
				L1290.4,102.3z"/>
			<path class="st11" d="M1281.8,102.3c0.9,0,1.6,0.3,2.2,0.9l0,0c0.6,0.6,1,1.3,1,2.2s-0.4,1.6-1,2.2l0,0c-0.6,0.6-1.3,1-2.2,1
				s-1.6-0.4-2.2-1c-0.6-0.6-0.9-1.3-0.9-2.2s0.3-1.6,0.9-2.2l0,0C1280.1,102.6,1280.9,102.3,1281.8,102.3L1281.8,102.3z"/>
		</g>
		<path class="st12" d="M1295.9,127.8v-9.1c4.2-3.6,6.4-8.6,6.4-14.4c0-10.1-9.4-18.4-20.9-18.4c-9.7,0-19.3,8.3-19.3,18.4
			c0,10,7.7,18.7,19.3,18.7c1.3,0,4.2-0.3,5.4-0.5L1295.9,127.8L1295.9,127.8z M1299.2,104.4c0,5.3-2.6,9.6-6.5,12.8v5.7l-5.6-3.7
			c-1.3,0.3-4.3,0.5-5.7,0.5c-9.8,0-16.2-6.9-16.2-15.3c0-8.5,8.1-15.4,16.2-15.4C1291.4,89.1,1299.2,95.9,1299.2,104.4
			L1299.2,104.4L1299.2,104.4z"/>
	</g>
	<g>
		<path class="st13" d="M1222.9,60.1l-1.5-0.2c-5.4,3.1-11.1,5.8-15.9,9.7V53c-1.5-1.2-2.9-2.8-4-4.3c-1.3-1.7-2.5-3.5-3.3-5.5l0,0
			c-0.9-2-1.5-4.1-2-6.4l0,0c-0.5-2.2-0.7-4.4-0.7-6.8c0-4,1-7.9,2.6-11.5c1.7-3.7,4.3-7,7.5-9.8l0,0c3.2-2.7,6.9-4.9,11-6.4
			c4-1.4,8.4-2.3,13-2.3c3.9,0,7.9,0.9,11.7,2.5c3.8,1.5,7.4,3.8,10.3,6.7c3,2.8,5.4,6,7,9.6c1.6,3.4,2.5,7.3,2.5,11.1
			c0,4.2-0.8,8.3-2.4,11.9c-1.5,3.7-3.8,7.2-6.8,9.9c-2.8,2.8-6.2,5-10,6.5c-3.7,1.4-7.8,2.2-12.2,2.2c-0.6,0-1.2,0-2-0.1
			c-0.9,0-1.6-0.1-2.4-0.1C1224.4,60.2,1223.7,60.1,1222.9,60.1L1222.9,60.1L1222.9,60.1z M1223.1,57.1c0.7,0.1,1.4,0.1,2.2,0.2l0,0
			c0.9,0.1,1.7,0.1,2.4,0.1c0.7,0.1,1.2,0.1,1.8,0.1c4,0,7.7-0.7,11.1-2c3.5-1.3,6.6-3.3,9.1-5.8c2.7-2.5,4.7-5.5,6.1-8.9
			c1.3-3.3,2.1-7,2.1-10.8c0-3.4-0.8-6.8-2.2-9.9c-1.4-3.2-3.6-6.2-6.3-8.7l0,0c-2.7-2.6-5.9-4.7-9.4-6.1l0,0
			c-3.3-1.4-7-2.2-10.5-2.2c-4.3,0-8.3,0.8-11.9,2.1c-3.8,1.3-7.2,3.4-10,5.8s-5.2,5.4-6.7,8.8c-1.4,3.1-2.3,6.5-2.3,10.1
			c0,2.2,0.2,4.3,0.6,6.3c0.4,1.9,1.1,3.8,1.8,5.6l0,0c0.8,1.7,1.8,3.4,3,5c1.2,1.5,2.6,3.1,4.1,4.3l0.1,0.1v0.1l0.4,1l0,0v11.6
			l11.8-6.8l0.1-0.1l0,0l0.9-0.1C1221.8,56.8,1222.4,56.9,1223.1,57.1L1223.1,57.1L1223.1,57.1z"/>
		<path class="st3" d="M1229.3,27l-1,2.5h-7.4c0,0.4-0.1,0.9-0.1,1.3c0,0.3,0,0.7,0,1.1h6.2l-0.9,2.5h-5c0.2,1.6,0.8,3,1.9,4.3
			c1.2,1.4,2.6,2.1,4.1,2.1c1.1,0,2.2-0.2,3.3-0.7c1.2-0.5,2.1-1.1,2.8-1.8v3.9c-1.7,1.3-3.8,1.9-6.5,1.9s-4.7-1-6.4-3
			c-1.5-1.7-2.4-3.9-2.8-6.7h-2.1v-2.5h1.8c-0.1-0.8-0.1-1.6,0-2.3h-1.7V27h2.1c0.4-2.8,1.5-5.1,3.1-6.9c1.8-2.1,4.1-3.1,6.7-3.1
			c3,0,5.1,0.5,6.3,1.7l-1.6,2.9c-1.2-0.9-2.7-1.4-4.6-1.4s-3.3,0.7-4.5,2.1c-1,1.2-1.6,2.8-1.9,4.7L1229.3,27L1229.3,27z"/>
	</g>
</g>
</svg>
