<?xml version="1.0" encoding="UTF-8"?>
<svg id="uuid-45bd0d86-4a8c-48ed-9a42-6fce2023fca1" data-name="Layer 1" xmlns="http://www.w3.org/2000/svg" xmlns:xlink="http://www.w3.org/1999/xlink" viewBox="0 0 1302.34 306.58">
  <defs>
    <style>
      .uuid-1aa4c71f-ba92-4fb3-a423-ce0433a19614 {
        fill: #171e46;
      }

      .uuid-1aa4c71f-ba92-4fb3-a423-ce0433a19614, .uuid-0b4bc7ff-4699-48ba-81fa-eb1b8aeb0317, .uuid-396f5982-b0ef-4814-9b57-ac94b1c93e0d, .uuid-d795ef0c-12eb-4bc2-a802-3e05f0e16390, .uuid-2f7ac946-392d-4434-a4b6-04c250042bf5, .uuid-6b11b132-1544-444c-b63b-a26d4ff2ae10, .uuid-c4e39462-10dc-4ce4-b80b-d6612d62b600, .uuid-33f74f7f-9e57-49cb-8e93-f9680ad89bff, .uuid-4dcb1b11-70a4-4567-a96c-3ea7869d8dd4, .uuid-b74dbb8a-c9f7-4caf-bdff-ef191f670130, .uuid-94b11ae6-6d49-4f70-a8f1-c5a3459b2240, .uuid-62723711-2181-4f57-b416-b8a9eeec285e, .uuid-fdd70e68-8597-49e1-88fb-c6fd0ec4c7a6, .uuid-5f2ee9ea-d387-43ae-b1e3-c2a13525ad3b {
        stroke-width: 0px;
      }

      .uuid-1aa4c71f-ba92-4fb3-a423-ce0433a19614, .uuid-4dcb1b11-70a4-4567-a96c-3ea7869d8dd4, .uuid-b74dbb8a-c9f7-4caf-bdff-ef191f670130, .uuid-5f2ee9ea-d387-43ae-b1e3-c2a13525ad3b {
        fill-rule: evenodd;
      }

      .uuid-0b4bc7ff-4699-48ba-81fa-eb1b8aeb0317, .uuid-4dcb1b11-70a4-4567-a96c-3ea7869d8dd4 {
        fill: #727270;
      }

      .uuid-396f5982-b0ef-4814-9b57-ac94b1c93e0d {
        fill: none;
      }

      .uuid-4dd97ccd-4e01-4b3c-b6d8-c593c71db41e {
        clip-path: url(#uuid-59065c50-716c-4529-a663-ab2b93453399);
      }

      .uuid-d795ef0c-12eb-4bc2-a802-3e05f0e16390 {
        fill: #fdcf00;
      }

      .uuid-2f7ac946-392d-4434-a4b6-04c250042bf5 {
        fill: #013780;
      }

      .uuid-6b11b132-1544-444c-b63b-a26d4ff2ae10 {
        fill: #c9eeff;
      }

      .uuid-c4e39462-10dc-4ce4-b80b-d6612d62b600 {
        fill: #239eed;
      }

      .uuid-33f74f7f-9e57-49cb-8e93-f9680ad89bff {
        fill: #f2bca9;
      }

      .uuid-b74dbb8a-c9f7-4caf-bdff-ef191f670130, .uuid-94b11ae6-6d49-4f70-a8f1-c5a3459b2240 {
        fill: #fff;
      }

      .uuid-62723711-2181-4f57-b416-b8a9eeec285e, .uuid-5f2ee9ea-d387-43ae-b1e3-c2a13525ad3b {
        fill: #01aced;
      }

      .uuid-fdd70e68-8597-49e1-88fb-c6fd0ec4c7a6 {
        fill: #5b2410;
      }
    </style>
    <clipPath id="uuid-59065c50-716c-4529-a663-ab2b93453399">
      <circle class="uuid-396f5982-b0ef-4814-9b57-ac94b1c93e0d" cx="143.64" cy="230.49" r="15.14" transform="translate(-113.51 317.84) rotate(-76.83)"/>
    </clipPath>
  </defs>
  <g>
    <g>
      <rect class="uuid-6b11b132-1544-444c-b63b-a26d4ff2ae10" x="183.91" y="252.58" width="124.65" height="54" rx="8.9" ry="8.9"/>
      <polygon class="uuid-6b11b132-1544-444c-b63b-a26d4ff2ae10" points="175.68 252.58 197.53 252.58 187.98 264.88 175.68 252.58"/>
      <g>
        <circle class="uuid-d795ef0c-12eb-4bc2-a802-3e05f0e16390" cx="279.58" cy="280.82" r="7.95" transform="translate(-58.18 488.05) rotate(-76.66)"/>
        <g>
          <path class="uuid-fdd70e68-8597-49e1-88fb-c6fd0ec4c7a6" d="M277.35,278.97c0,.82-.66-.5-1.48-.5s-1.48,1.32-1.48.5.66-1.48,1.48-1.48,1.48.66,1.48,1.48Z"/>
          <path class="uuid-fdd70e68-8597-49e1-88fb-c6fd0ec4c7a6" d="M284.78,278.97c0,.82-.66-.5-1.48-.5s-1.48,1.32-1.48.5.66-1.48,1.48-1.48,1.48.66,1.48,1.48Z"/>
        </g>
        <path class="uuid-fdd70e68-8597-49e1-88fb-c6fd0ec4c7a6" d="M279.58,284.04c-1.71,0-3.43-.65-4.73-1.96-.08-.08-.08-.22,0-.31.08-.08.22-.08.31,0,2.44,2.44,6.41,2.44,8.85,0,.08-.08.22-.08.31,0s.08.22,0,.31c-1.3,1.3-3.02,1.96-4.73,1.96Z"/>
      </g>
    </g>
    <path class="uuid-62723711-2181-4f57-b416-b8a9eeec285e" d="M132.89,212.43H8.9c-4.9,0-8.9,4.01-8.9,8.9v20.85c0,4.9,4.01,8.9,8.9,8.9h106.85c4.9,0,8.9-4.01,8.9-8.9v-20.85c0-.22-.02-.43-.03-.64l8.26-8.26Z"/>
    <circle class="uuid-6b11b132-1544-444c-b63b-a26d4ff2ae10" cx="159.91" cy="272.42" r="16.16" transform="translate(-57.83 43.57) rotate(-13.16)"/>
    <g>
      <circle class="uuid-c4e39462-10dc-4ce4-b80b-d6612d62b600" cx="143.64" cy="230.49" r="15.14" transform="translate(-113.51 317.84) rotate(-76.83)"/>
      <g class="uuid-4dd97ccd-4e01-4b3c-b6d8-c593c71db41e">
        <g>
          <path class="uuid-2f7ac946-392d-4434-a4b6-04c250042bf5" d="M151.14,228.24c0,4.14-3.36,7.5-7.51,7.5s-7.5-3.36-7.5-7.5,3.36-7.51,7.5-7.51,7.51,3.36,7.51,7.51Z"/>
          <path class="uuid-d795ef0c-12eb-4bc2-a802-3e05f0e16390" d="M144.81,237.87h-2.34c-4.34,0-7.85,3.51-7.85,7.85v5.49h18.04v-5.49c0-4.34-3.51-7.85-7.85-7.85Z"/>
          <path class="uuid-33f74f7f-9e57-49cb-8e93-f9680ad89bff" d="M147.98,224.1c-5.1,2.24-8.68,0-8.68,0,.54,1.51.69,4.03-1.69,7.5-.06,0-.12.01-.18.02.01,3.42,2.79,6.2,6.21,6.2h0c3.43,0,6.2-2.77,6.21-6.2-.06,0-.12-.01-.18-.02-2.38-3.47-2.24-5.99-1.69-7.5Z"/>
          <path class="uuid-33f74f7f-9e57-49cb-8e93-f9680ad89bff" d="M141.22,234.5v5.31c0,1.34,1.08,2.42,2.42,2.42s2.42-1.08,2.42-2.42v-5.31h-4.84Z"/>
          <path class="uuid-94b11ae6-6d49-4f70-a8f1-c5a3459b2240" d="M141.6,233.59c.09,1.05.97,1.88,2.04,1.88s1.95-.83,2.04-1.88h-4.09Z"/>
          <g>
            <path class="uuid-33f74f7f-9e57-49cb-8e93-f9680ad89bff" d="M139.18,231.2c0,1-.81,1.82-1.82,1.82s-1.82-.81-1.82-1.82.81-1.82,1.82-1.82,1.82.81,1.82,1.82Z"/>
            <path class="uuid-33f74f7f-9e57-49cb-8e93-f9680ad89bff" d="M151.73,231.2c0,1-.81,1.82-1.82,1.82s-1.82-.81-1.82-1.82.81-1.82,1.82-1.82,1.82.81,1.82,1.82Z"/>
          </g>
        </g>
      </g>
    </g>
    <g>
      <path class="uuid-b74dbb8a-c9f7-4caf-bdff-ef191f670130" d="M49.85,229.04c.95,0,1.9.35,2.61,1.06h0c.71.71,1.18,1.66,1.18,2.72s-.47,2.01-1.18,2.72h0c-.71.71-1.66,1.18-2.61,1.18-1.18,0-2.13-.47-2.84-1.18h0c-.71-.71-1.06-1.66-1.06-2.72s.35-2.01,1.06-2.72h0c.71-.71,1.66-1.06,2.84-1.06h0Z"/>
      <path class="uuid-b74dbb8a-c9f7-4caf-bdff-ef191f670130" d="M71.27,229.04c1.06,0,2.01.35,2.72,1.06h0c.71.71,1.06,1.66,1.06,2.72s-.35,2.01-1.06,2.72h0c-.71.71-1.66,1.18-2.72,1.18s-2.02-.47-2.73-1.18h0c-.71-.71-1.18-1.66-1.18-2.72s.47-2.01,1.18-2.72h0c.71-.71,1.66-1.06,2.73-1.06h0Z"/>
      <path class="uuid-b74dbb8a-c9f7-4caf-bdff-ef191f670130" d="M60.5,229.04c1.06,0,2.01.35,2.72,1.06h0c.71.71,1.18,1.66,1.18,2.72s-.47,2.01-1.18,2.72h0c-.71.71-1.66,1.18-2.72,1.18s-2.01-.47-2.72-1.18c-.71-.71-1.06-1.66-1.06-2.72s.36-2.01,1.06-2.72h0c.71-.71,1.66-1.06,2.72-1.06h0Z"/>
    </g>
    <g>
      <path class="uuid-1aa4c71f-ba92-4fb3-a423-ce0433a19614" d="M227.83,276.61c.95,0,1.9.35,2.61,1.06h0c.71.71,1.18,1.66,1.18,2.72s-.47,2.01-1.18,2.72h0c-.71.71-1.66,1.18-2.61,1.18-1.18,0-2.13-.47-2.84-1.18h0c-.71-.71-1.06-1.66-1.06-2.72s.35-2.01,1.06-2.72h0c.71-.71,1.66-1.06,2.84-1.06h0Z"/>
      <path class="uuid-1aa4c71f-ba92-4fb3-a423-ce0433a19614" d="M249.25,276.61c1.06,0,2.01.35,2.72,1.06h0c.71.71,1.06,1.66,1.06,2.72s-.35,2.01-1.06,2.72h0c-.71.71-1.66,1.18-2.72,1.18s-2.02-.47-2.73-1.18h0c-.71-.71-1.18-1.66-1.18-2.72s.47-2.01,1.18-2.72h0c.71-.71,1.66-1.06,2.73-1.06h0Z"/>
      <path class="uuid-1aa4c71f-ba92-4fb3-a423-ce0433a19614" d="M238.48,276.61c1.06,0,2.01.35,2.72,1.06h0c.71.71,1.18,1.66,1.18,2.72s-.47,2.01-1.18,2.72h0c-.71.71-1.66,1.18-2.72,1.18s-2.01-.47-2.72-1.18c-.71-.71-1.06-1.66-1.06-2.72s.36-2.01,1.06-2.72h0c.71-.71,1.66-1.06,2.72-1.06h0Z"/>
    </g>
  </g>
  <g>
    <g>
      <g>
        <path class="uuid-5f2ee9ea-d387-43ae-b1e3-c2a13525ad3b" d="M1273.14,102.3c.76,0,1.53.29,2.1.86h0c.57.57.95,1.34.95,2.2s-.38,1.62-.95,2.2h0c-.57.57-1.34.96-2.1.96-.96,0-1.72-.38-2.3-.96h0c-.57-.57-.86-1.34-.86-2.2s.29-1.63.86-2.2h0c.58-.57,1.34-.86,2.3-.86h0Z"/>
        <path class="uuid-5f2ee9ea-d387-43ae-b1e3-c2a13525ad3b" d="M1290.44,102.3c.86,0,1.62.29,2.2.86h0c.57.57.86,1.34.86,2.2s-.29,1.62-.86,2.2h0c-.58.57-1.34.96-2.2.96s-1.63-.38-2.2-.96h0c-.57-.57-.95-1.34-.95-2.2s.38-1.63.95-2.2h0c.57-.57,1.34-.86,2.2-.86h0Z"/>
        <path class="uuid-5f2ee9ea-d387-43ae-b1e3-c2a13525ad3b" d="M1281.75,102.3c.86,0,1.62.29,2.2.86h0c.57.57.96,1.34.96,2.2s-.38,1.62-.96,2.2h0c-.57.57-1.34.96-2.2.96s-1.63-.38-2.2-.96c-.57-.57-.86-1.34-.86-2.2s.29-1.63.86-2.2h0c.57-.57,1.34-.86,2.2-.86h0Z"/>
      </g>
      <path class="uuid-4dcb1b11-70a4-4567-a96c-3ea7869d8dd4" d="M1295.93,127.77v-9.08c4.21-3.63,6.41-8.6,6.41-14.43,0-10.13-9.37-18.45-20.93-18.45-9.65,0-19.31,8.32-19.31,18.45,0,10.04,7.74,18.73,19.31,18.73,1.34,0,4.21-.29,5.45-.48l9.08,5.26ZM1299.18,104.45c0,5.35-2.58,9.56-6.5,12.81v5.73s-5.55-3.73-5.55-3.73c-1.34.29-4.3.48-5.74.48-9.84,0-16.15-6.88-16.15-15.29,0-8.51,8.12-15.39,16.15-15.39,10.04,0,17.78,6.88,17.78,15.39h0Z"/>
    </g>
    <g>
      <path class="uuid-0b4bc7ff-4699-48ba-81fa-eb1b8aeb0317" d="M1222.91,60.12l-1.53-.19c-5.45,3.06-11.09,5.83-15.87,9.65v-16.63c-1.53-1.24-2.87-2.77-4.01-4.3-1.34-1.72-2.49-3.54-3.35-5.54h0c-.86-2.01-1.53-4.11-2.01-6.4h0c-.48-2.2-.67-4.4-.67-6.79,0-4.01.96-7.93,2.58-11.47,1.72-3.73,4.3-6.98,7.46-9.75h0c3.15-2.68,6.88-4.87,10.99-6.4,4.02-1.43,8.41-2.29,13-2.29,3.92,0,7.93.86,11.66,2.48,3.82,1.53,7.36,3.82,10.32,6.69,2.96,2.77,5.36,6.02,6.98,9.65,1.63,3.44,2.49,7.26,2.49,11.09,0,4.2-.76,8.31-2.39,11.95-1.53,3.73-3.82,7.17-6.79,9.94-2.77,2.77-6.21,4.97-10.04,6.5-3.73,1.43-7.84,2.2-12.23,2.2-.57,0-1.24,0-2.01-.1-.86,0-1.62-.1-2.39-.1-.67-.09-1.44-.19-2.2-.19h0ZM1223.11,57.06c.67.1,1.44.1,2.2.19h0c.86.09,1.72.09,2.39.09.67.1,1.24.1,1.81.1,4.01,0,7.74-.67,11.09-2.01,3.54-1.34,6.6-3.35,9.08-5.83,2.67-2.48,4.68-5.54,6.12-8.89,1.34-3.35,2.1-6.98,2.1-10.8,0-3.44-.76-6.79-2.2-9.85-1.43-3.25-3.63-6.21-6.31-8.7h0c-2.68-2.58-5.93-4.68-9.37-6.12h0c-3.35-1.43-6.98-2.2-10.51-2.2-4.3,0-8.31.77-11.95,2.1-3.82,1.34-7.17,3.35-10.04,5.83-2.87,2.48-5.16,5.45-6.69,8.79-1.43,3.06-2.3,6.5-2.3,10.13,0,2.2.19,4.3.58,6.31.38,1.91,1.05,3.82,1.81,5.64h0c.76,1.72,1.82,3.44,2.96,4.97,1.15,1.53,2.58,3.06,4.11,4.3l.1.1v.1l.38.96h0v11.57l11.85-6.79.1-.1h0l.86-.1c.48,0,1.15.1,1.81.19h0Z"/>
      <path class="uuid-62723711-2181-4f57-b416-b8a9eeec285e" d="M1229.33,27.03l-1.03,2.51h-7.38c-.04.44-.05.86-.05,1.27,0,.33.01.69.04,1.07h6.18l-.87,2.51h-5.04c.17,1.58.81,3.02,1.94,4.31,1.22,1.4,2.6,2.1,4.12,2.1,1.06,0,2.17-.24,3.33-.71,1.16-.47,2.1-1.09,2.8-1.84v3.87c-1.66,1.26-3.83,1.89-6.5,1.89s-4.7-.99-6.4-2.98c-1.47-1.72-2.42-3.94-2.85-6.65h-2.07v-2.51h1.75c-.06-.81-.07-1.59-.02-2.33h-1.73v-2.51h2.05c.44-2.77,1.48-5.08,3.12-6.93,1.83-2.06,4.08-3.08,6.74-3.08,2.97,0,5.07.55,6.29,1.66l-1.59,2.92c-1.2-.91-2.74-1.37-4.62-1.37s-3.29.7-4.46,2.1c-1,1.22-1.64,2.79-1.92,4.7h8.18Z"/>
    </g>
  </g>
</svg>