<?xml version="1.0" encoding="UTF-8"?>
<svg id="uuid-e64d8685-289f-4f3a-82ed-7079ce393305" data-name="Layer 1" xmlns="http://www.w3.org/2000/svg" viewBox="0 0 742.32 321.02">
  <defs>
    <style>
      .uuid-2e795cbe-c11d-45d6-a46d-c89489c3430b {
        fill: #ff2c71;
      }

      .uuid-2e795cbe-c11d-45d6-a46d-c89489c3430b, .uuid-8b8a5eee-28cd-4f9e-a355-ef2ce81cfa63, .uuid-031fa525-d9bc-49d1-9bbe-3e0f5d7cabe7, .uuid-56c30180-0127-45ac-b5f7-8fff1243d96e, .uuid-bae58850-8caa-429b-94bc-6362cc923877, .uuid-6d748b47-3195-450c-8afd-590ebb4ad3a9 {
        stroke-width: 0px;
      }

      .uuid-8b8a5eee-28cd-4f9e-a355-ef2ce81cfa63 {
        fill: #161e46;
      }

      .uuid-031fa525-d9bc-49d1-9bbe-3e0f5d7cabe7 {
        fill: #80b522;
      }

      .uuid-56c30180-0127-45ac-b5f7-8fff1243d96e {
        fill: #2c3b8b;
      }

      .uuid-bae58850-8caa-429b-94bc-6362cc923877 {
        fill: #ff5c9d;
      }

      .uuid-6d748b47-3195-450c-8afd-590ebb4ad3a9 {
        fill: #01aced;
      }
    </style>
  </defs>
  <g>
    <path class="uuid-56c30180-0127-45ac-b5f7-8fff1243d96e" d="M34.99,214.68c-1.34,2.83-.13,6.21,2.69,7.55s6.21.13,7.55-2.69c1.34-2.83.13-6.21-2.69-7.55-2.83-1.34-6.21-.13-7.55,2.69Z"/>
    <path class="uuid-2e795cbe-c11d-45d6-a46d-c89489c3430b" d="M46.63,237.34c-1.02,2.15-.1,4.73,2.05,5.75,2.15,1.02,4.73.1,5.75-2.05,1.02-2.15.1-4.73-2.05-5.75-2.15-1.02-4.73-.1-5.75,2.05Z"/>
    <path class="uuid-56c30180-0127-45ac-b5f7-8fff1243d96e" d="M29.21,217.1c-.52,1.09-1.82,1.56-2.91,1.04-1.09-.52-1.56-1.82-1.04-2.91.52-1.09,1.82-1.56,2.91-1.04s1.56,1.82,1.04,2.91Z"/>
  </g>
  <path class="uuid-8b8a5eee-28cd-4f9e-a355-ef2ce81cfa63" d="M592.36,205.69c-1.34,2.83-.13,6.21,2.69,7.55,2.83,1.34,6.21.13,7.55-2.69,1.34-2.83.13-6.21-2.69-7.55-2.83-1.34-6.21-.13-7.55,2.69Z"/>
  <path class="uuid-6d748b47-3195-450c-8afd-590ebb4ad3a9" d="M604,228.35c-1.02,2.15-.1,4.73,2.05,5.75,2.15,1.02,4.73.1,5.75-2.05,1.02-2.15.1-4.73-2.05-5.75-2.15-1.02-4.73-.1-5.75,2.05Z"/>
  <path class="uuid-2e795cbe-c11d-45d6-a46d-c89489c3430b" d="M586.57,208.11c-.52,1.09-1.82,1.56-2.91,1.04s-1.56-1.82-1.04-2.91,1.82-1.56,2.91-1.04,1.56,1.82,1.04,2.91Z"/>
  <path class="uuid-6d748b47-3195-450c-8afd-590ebb4ad3a9" d="M403.57,27.05c-1.43.68-3.13.07-3.81-1.36s-.07-3.13,1.36-3.81c1.43-.68,3.13-.07,3.81,1.36s.07,3.13-1.36,3.81Z"/>
  <path class="uuid-031fa525-d9bc-49d1-9bbe-3e0f5d7cabe7" d="M437.83,40.86c-1.03.49-2.25.05-2.74-.98s-.05-2.25.98-2.74,2.25-.05,2.74.98.05,2.25-.98,2.74Z"/>
  <path class="uuid-2e795cbe-c11d-45d6-a46d-c89489c3430b" d="M740.13,316.64c-1.21,0-2.19.98-2.19,2.19s.98,2.19,2.19,2.19,2.19-.98,2.19-2.19-.98-2.19-2.19-2.19Z"/>
  <circle class="uuid-6d748b47-3195-450c-8afd-590ebb4ad3a9" cx="168.44" cy="124.8" r="5.67"/>
  <circle class="uuid-031fa525-d9bc-49d1-9bbe-3e0f5d7cabe7" cx="4.32" cy="4.32" r="4.32"/>
  <circle class="uuid-8b8a5eee-28cd-4f9e-a355-ef2ce81cfa63" cx="166.4" cy="59.14" r="2.19"/>
  <path class="uuid-8b8a5eee-28cd-4f9e-a355-ef2ce81cfa63" d="M662.44,90.21c0-2.38,1.93-4.32,4.32-4.32s4.32,1.93,4.32,4.32-1.93,4.32-4.32,4.32-4.32-1.93-4.32-4.32Z"/>
  <circle class="uuid-bae58850-8caa-429b-94bc-6362cc923877" cx="565.84" cy="23.04" r="2.19"/>
</svg>