<?xml version="1.0" encoding="UTF-8"?>
<svg xmlns="http://www.w3.org/2000/svg" viewBox="0 0 35.56 33.73">
  <defs>
    <style>
      .uuid-327e8ba7-5334-4c45-8c6a-3f1e2811aa8b {
        fill: #0071da;
        mix-blend-mode: multiply;
      }

      .uuid-327e8ba7-5334-4c45-8c6a-3f1e2811aa8b, .uuid-94e87d01-e4a3-4583-9dcc-88bbcc74d6a8 {
        stroke-width: 0px;
      }

      .uuid-94e87d01-e4a3-4583-9dcc-88bbcc74d6a8 {
        fill: #ff8ae1;
      }

      .uuid-d37ae729-89a1-4d10-8bf8-9242e58d44ca {
        isolation: isolate;
      }
    </style>
  </defs>
  <g class="uuid-d37ae729-89a1-4d10-8bf8-9242e58d44ca">
    <g id="uuid-e78fddec-9531-4800-ab8b-f95d9f46e062" data-name="Layer 1">
      <g>
        <path class="uuid-94e87d01-e4a3-4583-9dcc-88bbcc74d6a8" d="M33.38,9.98C28.71,1.17,15.24-1.15,7.66,4.97-.76,11.77.19,25.14,8.26,30.18c12.26,7.66,25.45,1.99,27.13-8.25.6-3.65-.52-9.14-2.02-11.96ZM25.22,21.78c-1.24,2.01-4.91,3.87-8.08,2.86-4.56-1.45-6.09-7.35-3.54-11.05,1.89-2.73,7.14-2.98,9.31-1.49,2.6,1.79,3.99,6.93,2.3,9.67Z"/>
        <path class="uuid-327e8ba7-5334-4c45-8c6a-3f1e2811aa8b" d="M31.62,8.44C26.95-.37,13.48-2.69,5.9,3.43c-8.42,6.8-7.47,20.17.6,25.21,12.26,7.66,25.45,1.99,27.13-8.25.6-3.65-.52-9.14-2.02-11.96ZM23.46,20.24c-1.24,2.01-4.91,3.87-8.08,2.86-4.56-1.45-6.09-7.35-3.54-11.05,1.89-2.73,7.14-2.98,9.31-1.49,2.6,1.79,3.99,6.93,2.3,9.67Z"/>
      </g>
    </g>
  </g>
</svg>