<?xml version="1.0" encoding="UTF-8"?>
<svg id="uuid-7380dd68-1975-40c9-a45b-026b8dc9ae85" data-name="Layer 1" xmlns="http://www.w3.org/2000/svg" viewBox="0 0 43.73 76.41">
  <defs>
    <style>
      .uuid-5a7da595-c82a-4d54-bf49-74ecd75bfd6c {
        fill: #ff2c71;
      }

      .uuid-5a7da595-c82a-4d54-bf49-74ecd75bfd6c, .uuid-40cfd185-ee67-4610-84d9-0220e1fef3c1, .uuid-d5989232-84b7-4799-93d2-123878a3fd33 {
        stroke-width: 0px;
      }

      .uuid-40cfd185-ee67-4610-84d9-0220e1fef3c1 {
        fill: #161e46;
      }

      .uuid-d5989232-84b7-4799-93d2-123878a3fd33 {
        fill: #01aced;
      }
    </style>
  </defs>
  <path class="uuid-40cfd185-ee67-4610-84d9-0220e1fef3c1" d="M32.35,76.23c-4.74-12.33-8.61-24.02-13.35-36.35-.17-.45-.7-.66-1.13-.44-2.6,1.3-5.99,2.87-8.88,4.31-.4.2-.88-.07-.91-.52-.37-4.31-.25-8.41-1.07-24.28-.02-.48.25-.92.69-1.11,8.58-3.71,16.59-7.74,25.01-11.77.52-.25,1.12.19,1.03.76l-3.68,23.36c-.41,2.58-2.58,3.72,12.9-4.13.4-.2.86.13.79.58-1.05,6.56-.98,6.01-10.85,49.54-.06.27-.43.29-.53.04Z"/>
  <path class="uuid-d5989232-84b7-4799-93d2-123878a3fd33" d="M25.35,70.23c-4.74-12.33-8.61-24.02-13.35-36.35-.17-.45-.7-.66-1.13-.44-2.6,1.3-5.99,2.87-8.88,4.31-.4.2-.88-.07-.91-.52C.7,32.93.82,28.82,0,12.95c-.02-.48.25-.92.69-1.11C9.27,8.14,17.28,4.11,25.7.07c.52-.25,1.12.19,1.03.76l-3.68,23.36c-.41,2.58-2.58,3.72,12.9-4.13.4-.2.86.13.79.58-1.05,6.56-.98,6.01-10.85,49.54-.06.27-.43.29-.53.04Z"/>
  <path class="uuid-5a7da595-c82a-4d54-bf49-74ecd75bfd6c" d="M29.35,72.23c-4.74-12.33-8.61-24.02-13.35-36.35-.17-.45-.7-.66-1.13-.44-2.6,1.3-5.99,2.87-8.88,4.31-.4.2-.88-.07-.91-.52-.37-4.31-.25-8.41-1.07-24.28-.02-.48.25-.92.69-1.11,8.58-3.71,16.59-7.74,25.01-11.77.52-.25,1.12.19,1.03.76l-3.68,23.36c-.41,2.58-2.58,3.72,12.9-4.13.4-.2.86.13.79.58-1.05,6.56-.98,6.01-10.85,49.54-.06.27-.43.29-.53.04Z"/>
</svg>